<svg width="205" height="205" viewBox="0 0 205 205" fill="none" xmlns="http://www.w3.org/2000/svg">
<g filter="url(#filter0_d_385_109)">
<circle cx="98.5" cy="98.5" r="89.5" fill="#D9D9D9"/>
</g>
<path d="M116.665 102.515C121.306 98.8833 124.694 93.9037 126.356 88.2685C128.019 82.6334 127.874 76.6229 125.942 71.0734C124.01 65.5238 120.387 60.7111 115.577 57.3049C110.766 53.8986 105.008 52.0681 99.1029 52.0681C93.1978 52.0681 87.4394 53.8986 82.629 57.3049C77.8186 60.7111 74.1954 65.5238 72.2634 71.0734C70.3313 76.6229 70.1866 82.6334 71.8494 88.2685C73.5121 93.9037 76.8996 98.8833 81.5406 102.515C73.5882 105.683 66.6494 110.939 61.4641 117.72C56.2787 124.502 53.0411 132.557 52.0964 141.025C52.028 141.643 52.0828 142.268 52.2575 142.866C52.4322 143.463 52.7235 144.02 53.1147 144.505C53.9048 145.485 55.054 146.113 56.3095 146.25C57.565 146.388 58.8239 146.023 59.8093 145.238C60.7947 144.452 61.4259 143.309 61.564 142.06C62.6035 132.857 67.0158 124.358 73.9581 118.186C80.9003 112.014 89.8858 108.602 99.1976 108.602C108.509 108.602 117.495 112.014 124.437 118.186C131.379 124.358 135.792 132.857 136.831 142.06C136.96 143.217 137.515 144.285 138.389 145.059C139.263 145.833 140.395 146.257 141.565 146.25H142.086C143.327 146.108 144.461 145.484 145.241 144.514C146.021 143.544 146.385 142.307 146.251 141.072C145.302 132.58 142.047 124.505 136.835 117.712C131.623 110.92 124.651 105.666 116.665 102.515ZM99.1029 99.1721C95.3579 99.1721 91.697 98.0677 88.5831 95.9985C85.4692 93.9293 83.0423 90.9882 81.6091 87.5473C80.176 84.1063 79.801 80.32 80.5316 76.6671C81.2622 73.0142 83.0656 69.6588 85.7137 67.0252C88.3619 64.3916 91.7358 62.5981 95.4089 61.8714C99.0819 61.1448 102.889 61.5178 106.349 62.9431C109.809 64.3683 112.766 66.782 114.847 69.8788C116.928 72.9756 118.038 76.6164 118.038 80.3409C118.038 85.3352 116.043 90.125 112.492 93.6566C108.941 97.1881 104.125 99.1721 99.1029 99.1721Z" fill="white"/>
<defs>
<filter id="filter0_d_385_109" x="0" y="0" width="205" height="205" filterUnits="userSpaceOnUse" color-interpolation-filters="sRGB">
<feFlood flood-opacity="0" result="BackgroundImageFix"/>
<feColorMatrix in="SourceAlpha" type="matrix" values="0 0 0 0 0 0 0 0 0 0 0 0 0 0 0 0 0 0 127 0" result="hardAlpha"/>
<feMorphology radius="3" operator="dilate" in="SourceAlpha" result="effect1_dropShadow_385_109"/>
<feOffset dx="4" dy="4"/>
<feGaussianBlur stdDeviation="5"/>
<feComposite in2="hardAlpha" operator="out"/>
<feColorMatrix type="matrix" values="0 0 0 0 0 0 0 0 0 0 0 0 0 0 0 0 0 0 0.1 0"/>
<feBlend mode="normal" in2="BackgroundImageFix" result="effect1_dropShadow_385_109"/>
<feBlend mode="normal" in="SourceGraphic" in2="effect1_dropShadow_385_109" result="shape"/>
</filter>
</defs>
</svg>
