<svg width="641" height="257" viewBox="0 0 641 257" fill="none" xmlns="http://www.w3.org/2000/svg">
  <path d="M414.081 16.3548C411.376 11.6778 406.357 8.75832 400.888 8.75832H351.002L391.271 77.9907L449.692 78.229L414.051 16.3548H414.081ZM355.39 11.8267H400.858C405.816 11.8267 410.414 14.478 412.879 18.738L445.364 75.1309L392.083 74.9223L355.36 11.7969L355.39 11.8267Z" fill="url(#paint0_linear_1_2)"/>
  <path d="M401.699 8.75832H351.814C346.374 8.75832 341.326 11.648 338.621 16.3548L302.98 78.229L361.4 77.9907L401.669 8.75832H401.699Z" fill="white"/>
  <path d="M118.974 186.099H135.713V206.476H116.42C107.284 206.476 99.3204 204.539 92.5588 200.697C86.819 197.509 82.2512 193.07 78.8553 187.351C70.7414 195.066 60.6741 198.909 48.6535 198.909C33.778 198.909 21.9376 193.368 13.1325 182.316C5.86006 172.932 2.22382 161.433 2.22382 147.849C2.22382 131.583 7.21238 118.505 17.1895 108.615C25.634 100.065 35.9717 95.7755 48.1426 95.7755C57.4586 95.7755 65.4824 98.1289 72.244 102.806V91.9921L94.3319 80.4335V160.927C94.3319 170.162 96.6158 176.775 101.184 180.797C105.06 184.312 110.98 186.07 118.944 186.07L118.974 186.099ZM49.4348 180.32C58.9011 180.32 66.6844 176.477 72.7849 168.761C72.4543 165.753 72.274 163.399 72.274 161.731V126.251C66.0233 119.369 58.3301 115.943 49.1944 115.943C40.9002 115.943 34.379 119.459 29.6609 126.519C25.7542 132.388 23.8309 139.597 23.8309 148.147C23.8309 158.037 26.3552 166.021 31.4339 172.038C36.0018 177.579 42.0121 180.35 49.4348 180.35V180.32ZM39.5479 64.3468C35.6412 64.3468 32.606 63.2148 30.4122 60.9507C28.2184 58.6867 27.1065 55.6183 27.1065 51.7754C27.1065 47.9324 28.2184 44.8938 30.4122 42.7191C32.606 40.5445 35.6412 39.4422 39.5479 39.4422C43.4546 39.4422 46.4297 40.5445 48.5633 42.7191C50.667 44.8938 51.7488 47.9324 51.7488 51.7754C51.7488 55.6183 50.697 58.8952 48.5633 61.0699C46.4597 63.2446 43.4546 64.3468 39.5479 64.3468V64.3468ZM71.7632 64.3468C67.8564 64.3468 64.8212 63.2148 62.6275 60.9507C60.4337 58.6867 59.3218 55.6183 59.3218 51.7754C59.3218 47.9324 60.4337 44.8938 62.6275 42.7191C64.8212 40.5445 67.8564 39.4422 71.7632 39.4422C75.6699 39.4422 78.645 40.5445 80.7786 42.7191C82.8822 44.8938 83.9641 47.9324 83.9641 51.7754C83.9641 55.6183 82.9123 58.8952 80.7786 61.0699C78.675 63.2446 75.6699 64.3468 71.7632 64.3468V64.3468Z" fill="white" stroke="white" stroke-width="1.5" stroke-miterlimit="10"/>
  <path d="M221.63 186.219H268.811V206.595H206.905C200.294 206.595 194.554 205.999 189.655 204.837C184.907 205.999 179.167 206.595 172.406 206.595H110.74V186.219H157.951C153.053 180.678 149.206 174.392 146.411 167.361C143.616 160.331 142.234 153.449 142.234 146.747C142.234 130.302 146.892 117.224 156.178 107.513C164.622 98.6353 175.802 94.1668 189.685 94.1668C205.583 94.1668 217.844 99.8567 226.469 111.266C233.741 120.65 237.377 132.477 237.377 146.747C237.377 153.449 235.995 160.331 233.2 167.361C230.405 174.392 226.559 180.707 221.66 186.219H221.63ZM189.655 114.275C180.52 114.275 173.578 117.701 168.86 124.583C164.953 130.273 163.03 137.333 163.03 145.704C163.03 154.075 165.644 161.969 170.903 169.357C175.802 176.388 182.143 181.273 189.926 183.954C198.731 180.946 205.583 175.226 210.481 166.855C214.358 160.152 216.311 153.122 216.311 145.734C216.311 135.843 213.847 128.038 208.949 122.348C204.2 116.986 197.769 114.305 189.655 114.305V114.275ZM190.166 68.4877C186.26 68.4877 183.224 67.3556 181.031 65.0916C178.837 62.8275 177.725 59.7591 177.725 55.9162C177.725 52.0733 178.837 49.0347 181.031 46.86C183.224 44.6853 186.26 43.5831 190.166 43.5831C194.073 43.5831 197.048 44.6853 199.182 46.86C201.285 49.0347 202.367 52.0733 202.367 55.9162C202.367 59.7591 201.315 63.0361 199.182 65.2107C197.078 67.3854 194.073 68.4877 190.166 68.4877V68.4877Z" fill="white" stroke="white" stroke-width="1.5" stroke-miterlimit="10"/>
  <path d="M238.369 206.476V186.099H261.208C270.164 186.099 276.685 183.746 280.742 179.069C284.108 175.047 285.82 169 285.82 160.956V125.744L307.638 114.186V160.956C307.638 170.013 309.922 176.626 314.49 180.826C318.547 184.342 324.557 186.099 332.491 186.099H344.151C353.106 186.099 359.627 183.746 363.684 179.069C367.23 175.047 369.003 169 369.003 160.956V117.195L390.821 105.874V160.956C390.821 170.191 393.105 176.805 397.672 180.826C401.549 184.342 407.469 186.099 415.433 186.099H427.363C436.319 186.099 442.84 183.746 446.897 179.069C450.443 175.047 452.216 169 452.216 160.956V108.883L474.033 97.3246V161.731C474.033 175.971 469.736 187.142 461.081 195.185C453.478 202.573 443.321 206.327 430.639 206.506H413.119C398.243 206.506 387.154 201.56 379.882 191.67C372.609 201.411 361.791 206.357 347.396 206.506H329.876C315.331 206.506 304.242 201.56 296.639 191.67C289.367 201.56 278.278 206.506 263.402 206.506H238.279L238.369 206.476Z" fill="white" stroke="white" stroke-width="1.5" stroke-miterlimit="10"/>
  <path d="M523.318 251.519C517.398 253.693 511.147 254.796 504.536 254.796C494.378 254.796 484.491 252.293 474.845 247.259V228.401C483.47 233.108 492.094 235.432 500.719 235.432C507.331 235.432 513.161 234.002 518.239 231.172C529.569 225.303 535.248 213.149 535.248 194.709V108.943L557.336 97.3841V193.219C557.336 209.485 553.7 222.98 546.428 233.704C540.508 242.075 532.814 248.033 523.348 251.578L523.318 251.519Z" fill="white" stroke="white" stroke-width="1.5" stroke-miterlimit="10"/>
  <path d="M589.552 40.7232L595.382 29.9094H602.233C600.551 26.9005 599.709 23.8024 599.709 20.6148C599.709 15.4313 601.662 10.9628 605.539 7.26881C609.085 3.90252 613.413 2.23426 618.491 2.23426C622.729 2.23426 626.786 3.57482 630.662 6.25594V17.3379C627.116 14.478 623.57 13.0481 619.994 13.0481C617.109 13.0481 614.735 13.9716 612.902 15.8186C611.369 17.1592 610.618 19.0061 610.618 21.3596C610.618 24.2194 611.79 27.0495 614.164 29.9094H637.244L631.413 40.7232H589.552V40.7232ZM603.015 206.476V65.8661L624.832 54.3075V206.476H603.015Z" fill="white" stroke="white" stroke-width="1.5" stroke-miterlimit="10"/>
  <defs>
  <linearGradient id="paint0_linear_1_2" x1="351.002" y1="43.4937" x2="449.722" y2="43.4937" gradientUnits="userSpaceOnUse">
  <stop stop-color="#756DB2"/>
  <stop offset="0.43" stop-color="#4493D0"/>
  <stop offset="0.75" stop-color="#5BC3B5"/>
  </linearGradient>
  </defs>
  </svg>
  