<svg
  width="1127"
  height="442"
  viewBox="0 0 1127 442"
  fill="none"
  xmlns="http://www.w3.org/2000/svg"
>
  <path
    d="M729.64 22.6038C724.686 14.1402 715.492 8.85714 705.473 8.85714H614.091L687.857 134.14L794.874 134.571L729.585 22.6038H729.64ZM622.128 14.4097H705.418C714.502 14.4097 722.924 19.2075 727.438 26.9164L786.947 128.965L689.344 128.588L622.073 14.3558L622.128 14.4097Z"
    fill="url(#paint0_linear_0_1)"
  />
  <path
    d="M729.64 22.6038C724.686 14.1402 715.492 8.85714 705.473 8.85714H614.091L687.857 134.14L794.874 134.571L729.585 22.6038H729.64ZM622.128 14.4097H705.418C714.502 14.4097 722.924 19.2075 727.438 26.9164L786.947 128.965L689.344 128.588L622.073 14.3558L622.128 14.4097Z"
    fill="white"
  />
  <path
    d="M708.413 8.85714H621.03C611.502 8.85714 602.658 14.0862 597.921 22.6038L535.49 134.571L637.822 134.14L708.36 8.85714H708.413Z"
    fill="white"
  />
  <path
    d="M207.236 326.006H236.804V362.429H202.724C186.586 362.429 172.518 358.967 160.574 352.098C150.435 346.4 142.366 338.466 136.367 328.242C122.034 342.034 104.251 348.903 83.0166 348.903C56.7394 348.903 35.8239 338.999 20.2699 319.243C7.4233 302.469 1 281.915 1 257.633C1 228.559 9.81213 205.182 27.4364 187.503C42.3533 172.22 60.6146 164.552 82.1141 164.552C98.5705 164.552 112.744 168.759 124.688 177.119V157.79L163.706 137.129V281.01C163.706 297.517 167.74 309.339 175.809 316.527C182.657 322.811 193.115 325.953 207.183 325.953L207.236 326.006ZM84.3968 315.675C101.119 315.675 114.868 308.806 125.644 295.014C125.06 289.636 124.741 285.429 124.741 282.447V219.027C113.7 206.726 100.11 200.603 83.9721 200.603C69.3206 200.603 57.8011 206.886 49.4667 219.506C42.5657 229.996 39.1682 242.883 39.1682 258.166C39.1682 275.844 43.6274 290.115 52.5988 300.872C60.6677 310.776 71.2847 315.729 84.3968 315.729V315.675ZM66.9318 108.374C60.0307 108.374 54.6691 106.35 50.7939 102.303C46.9187 98.2565 44.9545 92.7718 44.9545 85.9025C44.9545 79.0333 46.9187 73.6019 50.7939 69.7146C54.6691 65.8274 60.0307 63.8571 66.9318 63.8571C73.8328 63.8571 79.0883 65.8274 82.8573 69.7146C86.5733 73.6019 88.4843 79.0333 88.4843 85.9025C88.4843 92.7718 86.6263 98.6292 82.8573 102.516C79.1413 106.404 73.8328 108.374 66.9318 108.374V108.374ZM123.839 108.374C116.938 108.374 111.576 106.35 107.701 102.303C103.826 98.2565 101.862 92.7718 101.862 85.9025C101.862 79.0333 103.826 73.6019 107.701 69.7146C111.576 65.8274 116.938 63.8571 123.839 63.8571C130.74 63.8571 135.996 65.8274 139.765 69.7146C143.481 73.6019 145.392 79.0333 145.392 85.9025C145.392 92.7718 143.534 98.6292 139.765 102.516C136.049 106.404 130.74 108.374 123.839 108.374V108.374Z"
    fill="white"
    stroke="white"
    stroke-width="1.5"
    stroke-miterlimit="10"
  />
  <path
    d="M388.53 325.625H473V362H362.167C350.331 362 340.055 360.936 331.285 358.862C322.784 360.936 312.508 362 300.402 362H190V325.625H274.523C265.754 315.734 258.867 304.513 253.863 291.962C248.86 279.412 246.385 267.127 246.385 255.162C246.385 225.806 254.724 202.461 271.349 185.124C286.468 169.276 306.482 161.299 331.339 161.299C359.8 161.299 381.751 171.457 397.193 191.825C410.213 208.576 416.723 229.689 416.723 255.162C416.723 267.127 414.248 279.412 409.244 291.962C404.241 304.513 397.354 315.787 388.584 325.625H388.53ZM331.285 197.196C314.929 197.196 302.501 203.311 294.054 215.596C287.059 225.753 283.616 238.357 283.616 253.3C283.616 268.244 288.297 282.337 297.712 295.525C306.482 308.076 317.834 316.797 331.769 321.583C347.533 316.212 359.8 306.002 368.57 291.058C375.51 279.093 379.007 266.542 379.007 253.354C379.007 235.698 374.596 221.765 365.826 211.607C357.325 202.035 345.811 197.249 331.285 197.249V197.196ZM332.199 115.458C325.205 115.458 319.771 113.438 315.844 109.396C311.916 105.354 309.925 99.8766 309.925 93.0165C309.925 86.1563 311.916 80.7319 315.844 76.8498C319.771 72.9677 325.205 71 332.199 71C339.194 71 344.52 72.9677 348.34 76.8498C352.106 80.7319 354.043 86.1563 354.043 93.0165C354.043 99.8766 352.16 105.726 348.34 109.609C344.574 113.491 339.194 115.458 332.199 115.458V115.458Z"
    fill="white"
    stroke="white"
    stroke-width="1.5"
    stroke-miterlimit="10"
  />
  <path
    d="M417.747 362.375V325.715H458.104C473.929 325.715 485.452 321.481 492.621 313.067C498.568 305.831 501.595 294.951 501.595 280.481V217.13L540.147 196.335V280.481C540.147 296.774 544.183 308.672 552.255 316.229C559.424 322.553 570.044 325.715 584.063 325.715H604.667C620.491 325.715 632.014 321.481 639.183 313.067C645.449 305.831 648.582 294.951 648.582 280.481V201.748L687.135 181.382V280.481C687.135 297.095 691.17 308.994 699.242 316.229C706.092 322.553 716.553 325.715 730.625 325.715H751.707C767.531 325.715 779.055 321.481 786.223 313.067C792.49 305.831 795.622 294.951 795.622 280.481V186.795L834.175 166V281.874C834.175 307.493 826.581 327.591 811.288 342.062C797.853 355.354 779.904 362.107 757.495 362.429H726.536C700.251 362.429 680.656 353.532 667.805 335.738C654.955 353.264 635.838 362.161 610.402 362.429H579.443C553.742 362.429 534.147 353.532 520.712 335.738C507.861 353.532 488.267 362.429 461.981 362.429H417.587L417.747 362.375Z"
    fill="white"
    stroke="white"
    stroke-width="1.5"
    stroke-miterlimit="10"
  />
  <path
    d="M921.931 435.275C911.213 439.074 899.896 441 887.927 441C869.538 441 851.639 436.628 834.175 427.833V394.889C849.789 403.112 865.403 407.171 881.018 407.171C892.987 407.171 903.542 404.673 912.736 399.729C933.247 389.477 943.53 368.243 943.53 336.027V186.193L983.517 166V333.425C983.517 361.841 976.934 385.417 963.768 404.153C953.05 418.777 939.123 429.186 921.985 435.379L921.931 435.275Z"
    fill="white"
    stroke="white"
    stroke-width="1.5"
    stroke-miterlimit="10"
  />
  <path
    d="M1038.54 69.1105L1049.11 49.9742H1061.53C1058.48 44.6498 1056.95 39.1672 1056.95 33.5265C1056.95 24.3537 1060.49 16.4461 1067.52 9.90919C1073.95 3.95216 1081.8 1 1091 1C1098.69 1 1106.04 3.37227 1113.07 8.11681V27.7276C1106.64 22.6667 1100.21 20.1363 1093.73 20.1363C1088.5 20.1363 1084.19 21.7705 1080.87 25.039C1078.09 27.4113 1076.73 30.6797 1076.73 34.8444C1076.73 39.9052 1078.85 44.9134 1083.16 49.9742H1125L1114.43 69.1105H1038.54V69.1105ZM1062.95 362.429V113.604L1102.5 93.1495V362.429H1062.95Z"
    fill="white"
    stroke="white"
    stroke-width="1.5"
    stroke-miterlimit="10"
  />
  <defs>
    <linearGradient
      id="paint0_linear_0_1"
      x1="614.091"
      y1="71.7143"
      x2="794.929"
      y2="71.7143"
      gradientUnits="userSpaceOnUse"
    >
      <stop stop-color="white" />
      <stop offset="0.43" stop-color="#4493D0" />
      <stop offset="0.75" stop-color="#5BC3B5" />
    </linearGradient>
  </defs>
</svg>
